# xmcd
#
# Track frame offsets: 
#        150
#        17502
#        35209
#        53410
#        73576
#        84338
#        106994
#
# Disc length: 1654 seconds
#
# Revision: 0
# Processed by: cddbd v1.5.1PL2 Copyright (c) Steve Scherf et al.
# Submitted via: ExactAudioCopy v0.95b3
#
DISCID=4e067407
DTITLE=Jake Mackay - Mend (Part 1)
DYEAR=2005
DGENRE=Blues
TTITLE0=Mend
TTITLE1=Follow
TTITLE2=Stil I'm Sad
TTITLE3=Reckless
TTITLE4=An Open Road
TTITLE5=Washed Up Tears
TTITLE6=Sing Your Sorrows
EXTD=
EXTT0=
EXTT1=
EXTT2=
EXTT3=
EXTT4=
EXTT5=
EXTT6=
PLAYORDER=
